<svg xmlns="http://www.w3.org/2000/svg" width="512" height="512" viewBox="0 0 512 512" role="img" aria-labelledby="title desc">
  <title id="title">CX Notifier icon</title>
  <desc id="desc">A terminal window combined with a notification bell.</desc>
  <defs>
    <linearGradient id="bg" x1="48" y1="24" x2="464" y2="488" gradientUnits="userSpaceOnUse">
      <stop stop-color="#10263B"/>
      <stop offset="1" stop-color="#07111F"/>
    </linearGradient>
    <linearGradient id="accent" x1="122" y1="148" x2="394" y2="382" gradientUnits="userSpaceOnUse">
      <stop stop-color="#67E8F9"/>
      <stop offset="1" stop-color="#2DD4BF"/>
    </linearGradient>
    <filter id="shadow" x="-20%" y="-20%" width="140%" height="140%">
      <feDropShadow dx="0" dy="18" stdDeviation="20" flood-color="#020617" flood-opacity="0.42"/>
    </filter>
  </defs>
  <rect width="512" height="512" rx="112" fill="url(#bg)"/>
  <circle cx="410" cy="102" r="42" fill="#FBBF24" opacity="0.14"/>
  <circle cx="95" cy="405" r="70" fill="#2DD4BF" opacity="0.08"/>
  <g filter="url(#shadow)">
    <rect x="76" y="106" width="360" height="282" rx="34" fill="#0B1828" stroke="#274158" stroke-width="8"/>
    <path d="M76 154c0-26.51 21.49-48 48-48h264c26.51 0 48 21.49 48 48v26H76v-26Z" fill="#13283D"/>
    <circle cx="120" cy="143" r="9" fill="#FB7185"/>
    <circle cx="151" cy="143" r="9" fill="#FBBF24"/>
    <circle cx="182" cy="143" r="9" fill="#34D399"/>
    <path d="m124 238 48 42-48 42" fill="none" stroke="url(#accent)" stroke-width="24" stroke-linecap="round" stroke-linejoin="round"/>
    <path d="M199 324h82" fill="none" stroke="#A5F3FC" stroke-width="22" stroke-linecap="round"/>
  </g>
  <g transform="translate(298 238)">
    <circle cx="80" cy="80" r="82" fill="#123147" stroke="#2DD4BF" stroke-width="8"/>
    <path d="M80 31c-25.96 0-47 21.04-47 47v29l-16 22h126l-16-22V78c0-25.96-21.04-47-47-47Z" fill="url(#accent)"/>
    <path d="M61 140h38c-2.52 11.98-10.1 19-19 19s-16.48-7.02-19-19Z" fill="#F0FDFA"/>
    <circle cx="126" cy="35" r="22" fill="#FBBF24" stroke="#07111F" stroke-width="8"/>
  </g>
</svg>
