<svg xmlns="http://www.w3.org/2000/svg" width="1200" height="400" viewBox="0 0 1200 400" role="img" aria-labelledby="title desc">
  <title id="title">CX Notifier</title>
  <desc id="desc">Coding agent approval and completion notifications.</desc>
  <defs>
    <linearGradient id="bg" x1="0" y1="0" x2="1200" y2="400" gradientUnits="userSpaceOnUse">
      <stop stop-color="#10263B"/>
      <stop offset="1" stop-color="#07111F"/>
    </linearGradient>
    <linearGradient id="accent" x1="91" y1="90" x2="323" y2="315" gradientUnits="userSpaceOnUse">
      <stop stop-color="#67E8F9"/>
      <stop offset="1" stop-color="#2DD4BF"/>
    </linearGradient>
  </defs>
  <rect width="1200" height="400" rx="48" fill="url(#bg)"/>
  <circle cx="1090" cy="42" r="140" fill="#2DD4BF" opacity="0.06"/>
  <circle cx="38" cy="390" r="180" fill="#60A5FA" opacity="0.05"/>
  <g transform="translate(68 55)">
    <rect width="290" height="290" rx="72" fill="#0B1828" stroke="#28445D" stroke-width="6"/>
    <rect x="38" y="50" width="214" height="168" rx="24" fill="#10263B" stroke="#31506A" stroke-width="5"/>
    <path d="m69 111 37 32-37 32" fill="none" stroke="url(#accent)" stroke-width="17" stroke-linecap="round" stroke-linejoin="round"/>
    <path d="M128 177h48" stroke="#A5F3FC" stroke-width="15" stroke-linecap="round"/>
    <path d="M196 151c-20.43 0-37 16.57-37 37v23l-13 18h100l-13-18v-23c0-20.43-16.57-37-37-37Z" fill="url(#accent)"/>
    <path d="M181 238h30c-2 9.5-7.98 15-15 15s-13-5.5-15-15Z" fill="#F0FDFA"/>
    <circle cx="235" cy="158" r="15" fill="#FBBF24" stroke="#0B1828" stroke-width="6"/>
  </g>
  <g font-family="Inter, ui-sans-serif, -apple-system, BlinkMacSystemFont, 'Segoe UI', sans-serif">
    <text x="410" y="174" fill="#F8FAFC" font-size="92" font-weight="760" letter-spacing="-3">CX Notifier</text>
    <text x="416" y="238" fill="#A5F3FC" font-size="31" font-weight="650">Stop babysitting the terminal.</text>
    <text x="416" y="296" fill="#94A3B8" font-size="25">Codex · Claude Code · Feishu · WeCom · DingTalk · Desktop</text>
  </g>
</svg>
