<svg xmlns="http://www.w3.org/2000/svg" width="1280" height="640" viewBox="0 0 1280 640" role="img" aria-labelledby="title desc">
  <title id="title">CX Notifier social preview</title>
  <desc id="desc">Leave the terminal and receive a notification when Codex or Claude Code needs you.</desc>
  <defs>
    <linearGradient id="bg" x1="0" y1="0" x2="1280" y2="640" gradientUnits="userSpaceOnUse">
      <stop stop-color="#102A43"/>
      <stop offset="0.58" stop-color="#071827"/>
      <stop offset="1" stop-color="#05101C"/>
    </linearGradient>
    <linearGradient id="accent" x1="740" y1="98" x2="1120" y2="530" gradientUnits="userSpaceOnUse">
      <stop stop-color="#67E8F9"/>
      <stop offset="1" stop-color="#2DD4BF"/>
    </linearGradient>
    <linearGradient id="iconBg" x1="48" y1="24" x2="464" y2="488" gradientUnits="userSpaceOnUse">
      <stop stop-color="#10263B"/>
      <stop offset="1" stop-color="#07111F"/>
    </linearGradient>
    <linearGradient id="iconAccent" x1="122" y1="148" x2="394" y2="382" gradientUnits="userSpaceOnUse">
      <stop stop-color="#67E8F9"/>
      <stop offset="1" stop-color="#2DD4BF"/>
    </linearGradient>
    <filter id="shadow" x="-30%" y="-30%" width="160%" height="160%">
      <feDropShadow dx="0" dy="18" stdDeviation="22" flood-color="#020617" flood-opacity="0.5"/>
    </filter>
  </defs>
  <rect width="1280" height="640" fill="url(#bg)"/>
  <circle cx="1160" cy="30" r="250" fill="#2DD4BF" opacity="0.08"/>
  <circle cx="36" cy="640" r="260" fill="#60A5FA" opacity="0.07"/>
  <g font-family="Inter, 'PingFang SC', 'Microsoft YaHei', ui-sans-serif, sans-serif">
    <g transform="translate(72 66) scale(0.14453125)">
      <rect width="512" height="512" rx="112" fill="url(#iconBg)"/>
      <circle cx="410" cy="102" r="42" fill="#FBBF24" opacity="0.14"/>
      <circle cx="95" cy="405" r="70" fill="#2DD4BF" opacity="0.08"/>
      <g>
        <rect x="76" y="106" width="360" height="282" rx="34" fill="#0B1828" stroke="#274158" stroke-width="8"/>
        <path d="M76 154c0-26.51 21.49-48 48-48h264c26.51 0 48 21.49 48 48v26H76v-26Z" fill="#13283D"/>
        <circle cx="120" cy="143" r="9" fill="#FB7185"/>
        <circle cx="151" cy="143" r="9" fill="#FBBF24"/>
        <circle cx="182" cy="143" r="9" fill="#34D399"/>
        <path d="m124 238 48 42-48 42" fill="none" stroke="url(#iconAccent)" stroke-width="24" stroke-linecap="round" stroke-linejoin="round"/>
        <path d="M199 324h82" fill="none" stroke="#A5F3FC" stroke-width="22" stroke-linecap="round"/>
      </g>
      <g transform="translate(298 238)">
        <circle cx="80" cy="80" r="82" fill="#123147" stroke="#2DD4BF" stroke-width="8"/>
        <path d="M80 31c-25.96 0-47 21.04-47 47v29l-16 22h126l-16-22V78c0-25.96-21.04-47-47-47Z" fill="url(#iconAccent)"/>
        <path d="M61 140h38c-2.52 11.98-10.1 19-19 19s-16.48-7.02-19-19Z" fill="#F0FDFA"/>
        <circle cx="126" cy="35" r="22" fill="#FBBF24" stroke="#07111F" stroke-width="8"/>
      </g>
    </g>
    <text x="170" y="119" fill="#E2E8F0" font-size="34" font-weight="720">CX Notifier</text>
    <text x="72" y="256" fill="#F8FAFC" font-size="76" font-weight="780">牛马</text>
    <text x="72" y="345" fill="#67E8F9" font-size="76" font-weight="780">呼叫器</text>
    <text x="76" y="415" fill="#B7C7D8" font-size="32" font-weight="650">活干完了吗？就跑</text>
    <g transform="translate(76 476)" font-size="22" font-weight="650">
      <rect width="138" height="48" rx="24" fill="#123147"/>
      <text x="69" y="31" text-anchor="middle" fill="#A5F3FC">单向通知</text>
      <rect x="154" width="164" height="48" rx="24" fill="#123147"/>
      <text x="236" y="31" text-anchor="middle" fill="#A5F3FC">隐私最小化</text>
      <rect x="334" width="184" height="48" rx="24" fill="#123147"/>
      <text x="426" y="31" text-anchor="middle" fill="#A5F3FC">Codex + Claude</text>
    </g>
  </g>
  <g transform="translate(720 84)" filter="url(#shadow)" font-family="Inter, 'PingFang SC', 'Microsoft YaHei', ui-sans-serif, sans-serif">
    <rect width="470" height="472" rx="42" fill="#0B1828" stroke="#2A455D" stroke-width="5"/>
    <rect x="32" y="34" width="406" height="180" rx="24" fill="#10263B"/>
    <circle cx="66" cy="67" r="8" fill="#FB7185"/>
    <circle cx="94" cy="67" r="8" fill="#FBBF24"/>
    <circle cx="122" cy="67" r="8" fill="#34D399"/>
    <text x="62" y="121" fill="#94A3B8" font-size="19">$ codex</text>
    <text x="62" y="157" fill="#E2E8F0" font-size="22">正在实现登录模块并运行测试…</text>
    <text x="62" y="190" fill="#2DD4BF" font-size="18">你可以先去做别的事</text>
    <rect x="74" y="254" width="322" height="142" rx="28" fill="url(#accent)"/>
    <circle cx="118" cy="284" r="24" fill="#0F3345"/>
    <path d="m107 278 9 8-9 8M123 294h11" fill="none" stroke="#A5F3FC" stroke-width="4" stroke-linecap="round"/>
    <text x="157" y="292" fill="#082F3B" font-size="18" font-weight="760">Codex · 任务已结束</text>
    <text x="105" y="338" fill="#083344" font-size="20" font-weight="650">项目：production-api</text>
    <text x="105" y="371" fill="#155E75" font-size="17">返回终端查看结果</text>
    <circle cx="389" cy="246" r="24" fill="#FBBF24" stroke="#0B1828" stroke-width="7"/>
    <text x="235" y="438" text-anchor="middle" fill="#7890A6" font-size="17">飞书 · 企业微信 · 钉钉 · 桌面</text>
  </g>
</svg>
